<?xml version="1.0" standalone="no"?>
<!DOCTYPE svg PUBLIC "-//W3C//DTD SVG 20010904//EN"
 "http://www.w3.org/TR/2001/REC-SVG-20010904/DTD/svg10.dtd">
<svg version="1.0" xmlns="http://www.w3.org/2000/svg"
 width="500.000000pt" height="500.000000pt" viewBox="0 0 500.000000 500.000000"
 preserveAspectRatio="xMidYMid meet">

<g transform="translate(0.000000,500.000000) scale(0.100000,-0.100000)"
fill="#FFFFFF" stroke="none">
<path d="M1418 3280 c-111 -14 -189 -62 -233 -142 l-30 -53 -3 -499 c-3 -572
-3 -576 72 -650 67 -68 135 -90 281 -90 182 -1 276 41 332 146 l28 53 3 493
c3 561 2 569 -69 647 -47 51 -113 81 -206 95 -75 11 -92 11 -175 0z m226 -146
c78 -40 76 -27 76 -574 0 -469 -1 -486 -20 -518 -31 -51 -97 -76 -196 -75 -96
0 -155 26 -188 83 -20 34 -21 52 -24 493 -2 316 1 470 8 499 13 47 57 93 104
108 55 16 196 8 240 -16z"/>
<path d="M2270 2560 l0 -690 70 0 70 0 1 533 c0 361 3 527 10 517 6 -8 111
-247 234 -530 l223 -515 76 -3 76 -3 0 691 0 690 -75 0 -75 0 0 -527 c0 -339
-4 -523 -10 -513 -5 8 -109 246 -232 528 l-222 512 -73 0 -73 0 0 -690z"/>
<path d="M3460 2560 l0 -690 265 0 265 0 0 65 0 65 -195 0 -195 0 0 625 0 625
-70 0 -70 0 0 -690z"/>
</g>
</svg>
