<?xml version="1.0" standalone="no"?>
<!DOCTYPE svg PUBLIC "-//W3C//DTD SVG 20010904//EN"
 "http://www.w3.org/TR/2001/REC-SVG-20010904/DTD/svg10.dtd">
<svg version="1.0" xmlns="http://www.w3.org/2000/svg"
 width="500.000000pt" height="500.000000pt" viewBox="0 0 500.000000 500.000000"
 preserveAspectRatio="xMidYMid meet">

<g transform="translate(0.000000,500.000000) scale(0.100000,-0.100000)"
fill="#0A2AFF" stroke="none">
<path d="M2375 4874 c-379 -32 -670 -112 -971 -268 -449 -234 -814 -609 -1034
-1061 -147 -302 -213 -549 -241 -903 -22 -291 31 -664 137 -951 82 -220 230
-486 371 -664 143 -180 366 -383 570 -519 106 -71 352 -194 484 -242 124 -46
300 -89 469 -117 191 -31 489 -31 680 0 285 47 470 105 715 226 249 123 450
270 645 471 231 238 391 486 513 794 122 307 182 690 158 1002 -40 508 -195
919 -495 1313 -83 110 -272 302 -386 394 -289 233 -649 404 -1000 475 -180 36
-480 61 -615 50z m-734 -1597 c110 -26 194 -97 219 -185 6 -23 10 -223 10
-537 l0 -500 -24 -50 c-29 -62 -76 -107 -141 -137 -45 -21 -65 -23 -195 -23
-135 0 -149 2 -200 26 -67 31 -116 79 -144 139 -20 43 -21 63 -24 523 -3 410
-1 486 13 540 26 101 99 173 205 201 69 18 208 20 281 3z m1005 -544 l229
-528 3 528 2 527 75 0 75 0 0 -695 0 -695 -78 0 -77 0 -225 519 -225 518 -3
-518 -2 -519 -80 0 -80 0 0 695 0 695 78 0 79 0 229 -527z m962 -105 l2 -628
195 0 195 0 0 -65 0 -65 -275 0 -275 0 0 695 0 696 78 -3 77 -3 3 -627z"/>
<path d="M1417 3147 c-26 -8 -57 -22 -68 -33 -48 -42 -49 -53 -49 -557 l0
-474 23 -33 c39 -59 79 -75 187 -75 105 0 144 14 184 68 21 28 21 36 21 522 0
482 0 494 -21 521 -11 15 -36 36 -56 46 -47 25 -159 32 -221 15z"/>
</g>
</svg>
